<?xml version="1.0" standalone="no"?>
<!DOCTYPE svg PUBLIC "-//W3C//DTD SVG 20010904//EN"
 "http://www.w3.org/TR/2001/REC-SVG-20010904/DTD/svg10.dtd">
<svg version="1.0" xmlns="http://www.w3.org/2000/svg"
 width="280.000000pt" height="280.000000pt" viewBox="0 0 280.000000 280.000000"
 preserveAspectRatio="xMidYMid meet">

<g transform="translate(0.000000,280.000000) scale(0.100000,-0.100000)"
fill="#000000" stroke="none">
<path d="M1183 2705 c-273 -50 -517 -174 -705 -357 -289 -281 -436 -675 -399
-1066 39 -417 249 -771 591 -996 229 -151 459 -219 740 -219 265 0 502 74 737
229 401 265 631 767 573 1244 -47 381 -228 695 -527 917 -160 119 -391 216
-586 248 -111 18 -325 18 -424 0z m421 -111 c126 -22 236 -58 350 -117 562
-287 811 -945 580 -1535 -144 -368 -482 -653 -878 -742 -93 -21 -255 -29 -368
-19 -352 30 -653 200 -866 487 -367 495 -310 1177 134 1603 201 192 395 285
694 332 66 11 273 6 354 -9z"/>
<path d="M1258 1793 c-9 -10 -40 -120 -69 -245 -29 -125 -55 -226 -57 -223 -3
2 -19 82 -36 177 -28 156 -33 174 -55 184 -55 28 -68 5 -176 -321 -4 -14 -18
24 -44 119 -21 76 -45 142 -52 147 -22 14 -55 11 -69 -6 -7 -9 -23 -57 -35
-108 l-22 -92 -53 -5 c-74 -8 -102 -48 -60 -90 16 -16 33 -20 93 -20 50 0 80
5 95 16 13 9 25 14 26 13 2 -2 16 -55 31 -117 27 -111 40 -132 77 -132 30 1
44 26 94 172 28 84 54 146 57 138 3 -8 20 -96 37 -195 17 -99 38 -190 46 -202
17 -27 55 -30 78 -7 9 8 16 17 16 19 0 2 22 100 49 217 27 117 52 228 56 246
4 19 11 30 15 25 4 -4 31 -93 60 -196 52 -188 66 -217 99 -217 39 0 51 24 81
165 43 197 40 190 65 114 33 -97 41 -109 74 -109 36 0 41 7 81 103 17 42 35
77 39 77 4 0 18 -23 32 -51 26 -58 58 -84 88 -74 11 3 37 33 57 66 20 32 39
59 41 59 3 0 24 -16 47 -35 41 -33 47 -35 119 -35 79 0 107 13 107 49 0 37
-25 54 -86 59 -52 4 -64 9 -99 43 -47 45 -92 70 -112 62 -8 -3 -29 -28 -48
-55 l-33 -50 -39 74 c-28 54 -45 75 -66 83 -40 13 -57 -1 -84 -76 -14 -35 -28
-68 -32 -72 -5 -4 -23 34 -41 85 -35 103 -42 113 -70 121 -43 11 -61 -22 -95
-174 l-32 -144 -16 55 c-9 30 -35 123 -57 205 -25 93 -46 155 -57 163 -24 17
-47 15 -65 -5z"/>
</g>
</svg>
