<?xml version="1.0" standalone="no"?>
<!DOCTYPE svg PUBLIC "-//W3C//DTD SVG 20010904//EN"
 "http://www.w3.org/TR/2001/REC-SVG-20010904/DTD/svg10.dtd">
<svg version="1.0" xmlns="http://www.w3.org/2000/svg"
 width="245.000000pt" height="229.000000pt" viewBox="0 0 245.000000 229.000000"
 preserveAspectRatio="xMidYMid meet">

<g transform="translate(0.000000,229.000000) scale(0.100000,-0.100000)"
fill="#000000" stroke="none">
<path d="M1116 2119 c-139 -33 -262 -157 -300 -304 -23 -88 -23 -657 0 -736
44 -151 188 -276 341 -297 190 -26 362 69 446 245 l32 68 0 360 0 360 -32 66
c-18 36 -50 86 -72 110 -96 109 -269 162 -415 128z m209 -157 c66 -26 112 -69
142 -130 l28 -57 3 -303 c4 -364 0 -385 -81 -466 -109 -108 -267 -115 -380
-15 -25 21 -55 60 -68 86 -24 48 -24 51 -24 373 0 310 1 327 21 371 64 137
219 198 359 141z"/>
<path d="M550 1240 c-26 -26 -26 -89 0 -199 31 -127 90 -231 185 -326 111
-110 218 -165 388 -200 27 -5 27 -6 27 -89 l0 -84 -155 -4 c-142 -3 -156 -5
-176 -25 -27 -27 -27 -69 0 -96 21 -22 26 -22 400 -22 352 0 380 1 399 18 31
28 33 64 7 95 -23 27 -24 27 -179 30 l-156 3 0 85 c0 46 2 84 4 84 26 0 121
25 174 46 222 88 379 274 427 505 22 106 20 164 -7 183 -54 38 -118 5 -118
-61 -1 -125 -66 -271 -164 -368 -176 -175 -403 -212 -634 -105 -159 74 -274
249 -298 453 -7 67 -31 97 -76 97 -15 0 -37 -9 -48 -20z"/>
</g>
</svg>
