<?xml version="1.0" standalone="no"?>
<!DOCTYPE svg PUBLIC "-//W3C//DTD SVG 20010904//EN"
 "http://www.w3.org/TR/2001/REC-SVG-20010904/DTD/svg10.dtd">
<svg version="1.0" xmlns="http://www.w3.org/2000/svg"
 width="512.000000pt" height="512.000000pt" viewBox="0 0 512.000000 512.000000"
 preserveAspectRatio="xMidYMid meet">

<g transform="translate(0.000000,512.000000) scale(0.100000,-0.100000)"
fill="#000000" stroke="none">
<path d="M2315 5109 c-800 -83 -1501 -518 -1927 -1196 -487 -774 -516 -1777
-75 -2578 200 -364 487 -676 841 -913 238 -159 600 -311 876 -366 214 -43 295
-51 530 -51 236 0 333 10 532 51 879 183 1616 843 1897 1699 93 282 126 493
126 805 0 301 -32 513 -116 775 -124 390 -330 728 -622 1024 -399 404 -893
653 -1462 737 -123 18 -478 26 -600 13z m446 -480 c404 -41 794 -200 1103
-450 543 -437 835 -1133 766 -1820 -73 -718 -506 -1344 -1151 -1663 -798 -395
-1764 -234 -2393 400 -437 439 -657 1056 -596 1665 73 720 509 1349 1156 1665
346 169 742 242 1115 203z"/>
<path d="M1600 2560 l0 -960 960 0 960 0 0 960 0 960 -960 0 -960 0 0 -960z"/>
</g>
</svg>
