<svg id="svg" version="1.1" xmlns="http://www.w3.org/2000/svg" xmlns:xlink="http://www.w3.org/1999/xlink" width="400" height="397.35391400220504" viewBox="0, 0, 400,397.35391400220504"><g id="svgg"><path id="path0" d="M174.254 3.463 C 173.544 3.554,172.962 3.798,172.962 4.005 C 172.962 4.212,172.202 4.373,171.272 4.364 C 168.013 4.330,164.409 4.583,163.951 4.877 C 163.696 5.040,162.891 5.178,162.161 5.183 C 159.688 5.200,157.656 5.392,157.247 5.647 C 157.022 5.786,155.859 5.900,154.662 5.899 C 152.747 5.897,146.143 6.745,143.038 7.391 C 142.401 7.524,142.051 7.797,142.203 8.043 C 142.376 8.323,142.116 8.378,141.436 8.208 C 140.843 8.059,140.293 8.133,140.139 8.383 C 139.991 8.622,139.533 8.729,139.121 8.621 C 138.708 8.513,138.261 8.602,138.126 8.819 C 137.992 9.037,137.545 9.126,137.132 9.018 C 136.720 8.910,136.273 9.000,136.138 9.217 C 136.004 9.434,135.557 9.524,135.144 9.416 C 134.732 9.308,134.285 9.396,134.152 9.612 C 134.018 9.828,133.481 9.897,132.959 9.766 C 132.436 9.635,132.008 9.674,132.008 9.854 C 132.008 10.033,131.358 10.199,130.564 10.221 C 129.769 10.244,129.009 10.413,128.874 10.598 C 128.739 10.783,127.913 10.990,127.038 11.058 C 126.163 11.126,124.503 11.626,123.349 12.168 C 122.195 12.711,121.089 13.055,120.891 12.933 C 120.694 12.811,120.418 12.895,120.278 13.121 C 120.139 13.347,119.838 13.417,119.610 13.276 C 119.382 13.135,119.055 13.246,118.884 13.523 C 118.713 13.800,118.035 14.046,117.377 14.071 C 116.720 14.095,116.283 14.280,116.407 14.481 C 116.533 14.687,116.316 14.726,115.908 14.569 C 115.128 14.270,111.332 15.364,111.332 15.888 C 111.332 16.367,109.056 17.212,108.573 16.913 C 108.341 16.770,108.151 16.861,108.151 17.116 C 108.151 17.371,107.883 17.477,107.555 17.351 C 107.227 17.225,106.958 17.290,106.958 17.495 C 106.958 17.700,106.690 17.765,106.362 17.639 C 106.034 17.513,105.765 17.608,105.765 17.850 C 105.765 18.092,105.333 18.290,104.804 18.290 C 103.559 18.290,100.199 19.730,100.199 20.264 C 100.199 20.491,100.065 20.650,99.901 20.619 C 99.737 20.588,98.976 20.806,98.211 21.103 C 97.445 21.401,96.685 21.605,96.521 21.558 C 96.357 21.510,96.223 21.658,96.223 21.886 C 96.223 22.114,95.999 22.251,95.726 22.191 C 95.001 22.029,92.644 23.087,92.644 23.574 C 92.644 23.802,92.539 23.884,92.410 23.755 C 92.281 23.627,91.361 24.039,90.364 24.671 C 89.367 25.303,88.399 25.726,88.212 25.610 C 88.026 25.495,87.873 25.600,87.873 25.845 C 87.873 26.089,87.694 26.179,87.475 26.044 C 87.256 25.909,87.078 25.998,87.078 26.243 C 87.078 26.487,86.899 26.577,86.680 26.441 C 86.461 26.306,86.282 26.355,86.282 26.550 C 86.282 26.746,86.056 26.905,85.779 26.905 C 85.502 26.905,84.366 27.559,83.255 28.357 C 82.143 29.156,81.117 29.692,80.975 29.550 C 80.832 29.408,80.716 29.510,80.716 29.778 C 80.716 30.046,80.537 30.155,80.318 30.020 C 80.099 29.885,79.920 29.964,79.920 30.195 C 79.920 30.427,79.786 30.595,79.622 30.569 C 78.858 30.449,78.360 30.701,77.232 31.779 C 76.563 32.418,75.914 32.839,75.791 32.716 C 75.667 32.592,75.453 32.784,75.316 33.142 C 75.178 33.500,74.912 33.698,74.724 33.582 C 74.537 33.466,74.033 33.720,73.606 34.147 C 73.179 34.574,72.725 34.819,72.598 34.692 C 72.470 34.564,72.366 34.669,72.366 34.924 C 72.366 35.179,72.220 35.343,72.042 35.288 C 71.864 35.234,71.135 35.770,70.421 36.481 C 69.708 37.192,68.869 37.773,68.558 37.773 C 68.247 37.773,67.992 37.952,67.992 38.171 C 67.992 38.390,67.858 38.529,67.694 38.480 C 67.152 38.319,65.209 39.842,65.209 40.427 C 65.209 40.743,65.047 40.901,64.848 40.778 C 64.317 40.450,59.978 44.111,60.293 44.621 C 60.461 44.893,60.373 44.938,60.058 44.743 C 59.737 44.545,58.961 45.004,57.909 46.016 C 57.003 46.887,54.613 49.173,52.598 51.096 C 50.582 53.018,49.030 54.748,49.148 54.940 C 49.266 55.131,49.134 55.239,48.855 55.179 C 48.575 55.119,48.338 55.338,48.328 55.666 C 48.318 55.994,48.131 56.265,47.913 56.269 C 47.234 56.279,46.497 56.896,46.724 57.264 C 46.843 57.456,46.406 58.009,45.752 58.492 C 45.099 58.976,44.660 59.526,44.777 59.715 C 44.894 59.905,44.806 60.010,44.582 59.950 C 44.061 59.811,40.890 63.591,41.161 64.028 C 41.272 64.209,41.035 64.460,40.634 64.588 C 39.654 64.899,38.065 67.101,38.413 67.664 C 38.584 67.940,38.514 68.005,38.232 67.831 C 37.960 67.663,37.773 67.800,37.773 68.167 C 37.773 68.508,37.594 68.787,37.376 68.787 C 37.157 68.787,36.978 69.035,36.978 69.338 C 36.978 69.641,36.525 70.185,35.971 70.548 C 35.418 70.911,35.070 71.379,35.200 71.588 C 35.329 71.797,35.235 71.968,34.990 71.968 C 34.746 71.968,34.645 72.128,34.766 72.324 C 34.886 72.520,34.707 72.787,34.366 72.918 C 34.026 73.048,33.847 73.317,33.969 73.514 C 34.090 73.711,33.912 73.980,33.571 74.111 C 33.230 74.241,33.051 74.510,33.173 74.707 C 33.295 74.904,33.109 75.175,32.760 75.310 C 32.405 75.446,32.223 75.810,32.347 76.134 C 32.469 76.453,32.371 76.837,32.128 76.987 C 31.861 77.152,31.798 77.079,31.970 76.801 C 32.126 76.549,32.177 76.342,32.084 76.342 C 31.738 76.342,29.843 79.495,29.595 80.485 C 29.453 81.049,29.148 81.511,28.916 81.511 C 28.685 81.511,28.604 81.619,28.737 81.752 C 28.869 81.885,28.637 82.359,28.220 82.806 C 27.804 83.254,27.557 83.771,27.671 83.957 C 27.786 84.142,27.694 84.294,27.467 84.294 C 26.932 84.294,25.397 87.292,25.751 87.646 C 25.899 87.795,25.825 88.040,25.586 88.193 C 24.933 88.609,21.544 95.068,21.321 96.323 C 21.213 96.926,20.792 97.910,20.384 98.510 C 19.276 100.143,18.644 101.795,18.943 102.278 C 19.113 102.553,19.019 102.590,18.682 102.382 C 18.301 102.147,18.224 102.237,18.404 102.705 C 18.541 103.062,18.479 103.462,18.266 103.593 C 18.054 103.725,17.983 103.999,18.108 104.202 C 18.234 104.406,18.118 104.573,17.850 104.573 C 17.582 104.573,17.480 104.690,17.624 104.834 C 17.768 104.978,17.688 105.334,17.447 105.624 C 17.206 105.915,17.116 106.433,17.247 106.775 C 17.404 107.183,17.327 107.299,17.025 107.112 C 16.718 106.922,16.649 107.048,16.819 107.489 C 16.958 107.853,16.889 108.151,16.664 108.151 C 16.439 108.151,16.353 108.310,16.473 108.504 C 16.593 108.698,16.425 109.077,16.099 109.348 C 15.381 109.943,15.310 110.684,16.004 110.332 C 16.277 110.193,16.156 110.360,15.735 110.702 C 15.313 111.044,15.081 111.436,15.219 111.574 C 15.356 111.712,15.195 112.098,14.861 112.433 C 14.526 112.767,14.339 113.372,14.445 113.777 C 14.551 114.182,14.456 114.513,14.234 114.513 C 14.013 114.513,13.932 114.776,14.055 115.097 C 14.179 115.418,14.105 115.788,13.893 115.919 C 13.680 116.051,13.601 116.313,13.718 116.501 C 13.834 116.689,13.735 116.964,13.498 117.110 C 13.261 117.257,13.159 117.615,13.271 117.907 C 13.383 118.199,13.289 118.500,13.062 118.575 C 12.835 118.651,12.631 119.372,12.608 120.179 C 12.585 120.985,12.356 121.726,12.099 121.824 C 11.530 122.043,10.159 127.421,10.523 128.009 C 10.666 128.240,10.581 128.429,10.335 128.429 C 10.068 128.429,9.989 128.751,10.139 129.225 C 10.286 129.687,10.211 130.020,9.960 130.020 C 9.697 130.020,9.626 130.410,9.777 131.014 C 9.936 131.649,9.859 132.008,9.562 132.008 C 9.307 132.008,9.214 132.195,9.355 132.423 C 9.496 132.651,9.397 133.096,9.135 133.412 C 8.873 133.728,8.760 134.251,8.884 134.575 C 9.009 134.898,8.931 135.274,8.712 135.410 C 8.493 135.545,8.395 136.177,8.496 136.814 C 8.596 137.451,8.520 137.972,8.328 137.972 C 8.135 137.972,8.091 138.270,8.231 138.634 C 8.387 139.040,8.326 139.197,8.072 139.040 C 7.579 138.735,6.544 143.199,6.896 144.115 C 7.026 144.454,6.938 144.732,6.702 144.732 C 6.449 144.732,6.345 145.229,6.449 145.942 C 6.547 146.608,6.490 147.237,6.322 147.341 C 6.154 147.445,6.118 148.152,6.241 148.914 C 6.394 149.856,6.312 150.298,5.985 150.298 C 5.660 150.298,5.586 150.675,5.757 151.453 C 5.897 152.088,5.834 152.717,5.619 152.850 C 5.403 152.984,5.292 153.895,5.372 154.876 C 5.452 155.857,5.381 156.660,5.214 156.660 C 5.047 156.660,4.901 157.242,4.890 157.952 C 4.879 158.663,4.736 160.139,4.571 161.233 C 4.407 162.326,4.273 163.978,4.273 164.903 C 4.273 165.828,4.135 166.500,3.966 166.395 C 3.296 165.981,3.121 171.012,2.929 196.322 C 2.791 214.394,2.858 222.664,3.141 222.664 C 3.368 222.664,3.449 222.937,3.321 223.270 C 2.961 224.209,3.597 230.652,4.024 230.388 C 4.235 230.257,4.375 230.818,4.346 231.679 C 4.317 232.516,4.424 234.095,4.583 235.189 C 5.016 238.167,5.260 240.582,5.296 242.247 C 5.314 243.067,5.496 243.738,5.699 243.738 C 5.902 243.738,5.973 244.453,5.856 245.328 C 5.726 246.292,5.804 246.918,6.052 246.918 C 6.295 246.918,6.364 247.404,6.223 248.111 C 6.091 248.767,6.114 249.306,6.272 249.308 C 6.431 249.310,6.600 250.426,6.647 251.789 C 6.695 253.151,6.892 254.319,7.086 254.383 C 7.280 254.448,7.362 254.987,7.267 255.580 C 7.131 256.432,7.185 256.534,7.523 256.064 C 7.850 255.607,7.895 255.760,7.713 256.712 C 7.553 257.546,7.696 258.295,8.145 258.981 C 8.514 259.544,8.708 260.179,8.576 260.392 C 8.445 260.606,8.533 260.901,8.773 261.050 C 9.013 261.198,9.106 261.732,8.979 262.237 C 8.852 262.745,8.942 263.219,9.180 263.299 C 9.417 263.378,9.641 264.197,9.677 265.119 C 9.712 266.040,9.858 266.796,10.000 266.797 C 10.142 266.798,10.259 267.381,10.260 268.091 C 10.262 269.927,11.486 274.428,12.200 275.223 C 12.531 275.592,12.692 276.072,12.557 276.289 C 12.423 276.507,12.487 276.792,12.700 276.924 C 12.913 277.055,12.986 277.425,12.863 277.746 C 12.739 278.067,12.856 278.330,13.121 278.330 C 13.387 278.330,13.505 278.587,13.385 278.901 C 13.265 279.215,13.362 279.537,13.602 279.617 C 13.843 279.697,14.082 280.469,14.135 281.333 C 14.188 282.196,14.250 283.137,14.273 283.423 C 14.295 283.709,14.448 283.861,14.612 283.759 C 14.776 283.658,14.939 284.045,14.973 284.618 C 15.008 285.192,15.221 285.723,15.448 285.799 C 15.675 285.874,15.750 286.222,15.616 286.572 C 15.462 286.973,15.532 287.109,15.805 286.940 C 16.198 286.697,16.972 288.788,16.776 289.563 C 16.734 289.727,16.898 289.861,17.140 289.861 C 17.382 289.861,17.477 290.129,17.351 290.457 C 17.225 290.785,17.311 291.054,17.541 291.054 C 17.771 291.054,17.885 291.276,17.794 291.547 C 17.704 291.819,17.852 292.263,18.124 292.534 C 18.395 292.806,18.515 293.417,18.391 293.892 C 18.222 294.537,18.297 294.675,18.687 294.434 C 19.016 294.230,19.112 294.267,18.947 294.535 C 18.617 295.069,19.060 296.286,19.488 296.021 C 19.663 295.913,19.713 296.180,19.600 296.615 C 19.469 297.116,19.627 297.496,20.032 297.651 C 20.384 297.786,20.572 298.057,20.451 298.252 C 20.330 298.448,20.431 298.608,20.676 298.608 C 20.920 298.608,21.010 298.787,20.875 299.006 C 20.740 299.225,20.804 299.404,21.019 299.404 C 21.233 299.404,21.546 299.985,21.715 300.696 C 21.884 301.407,22.055 302.122,22.095 302.286 C 22.135 302.450,22.189 302.774,22.217 303.006 C 22.244 303.237,22.443 303.317,22.659 303.184 C 22.893 303.039,22.946 303.218,22.791 303.623 C 22.614 304.083,22.679 304.213,22.990 304.021 C 23.285 303.838,23.370 303.946,23.225 304.322 C 23.101 304.645,23.357 305.265,23.793 305.702 C 24.229 306.138,24.481 306.599,24.354 306.726 C 24.226 306.854,24.309 306.958,24.538 306.958 C 25.098 306.958,26.043 309.273,26.212 311.057 C 26.229 311.234,26.419 311.270,26.636 311.136 C 26.852 311.002,26.935 311.138,26.820 311.437 C 26.705 311.736,27.046 312.450,27.578 313.023 C 28.110 313.597,28.444 314.167,28.321 314.290 C 28.199 314.412,28.317 314.513,28.585 314.513 C 28.853 314.513,28.961 314.693,28.825 314.913 C 28.689 315.134,28.851 315.418,29.184 315.546 C 29.812 315.787,30.392 317.032,30.567 318.513 C 30.594 318.744,30.793 318.824,31.009 318.691 C 31.229 318.555,31.305 318.702,31.181 319.024 C 31.056 319.350,31.333 319.860,31.819 320.201 C 32.902 320.959,34.218 322.745,33.369 322.303 C 33.058 322.141,33.151 322.290,33.575 322.635 C 34.000 322.979,34.211 323.260,34.045 323.260 C 33.637 323.260,35.265 325.533,36.860 327.189 C 37.571 327.929,38.057 328.689,37.940 328.879 C 37.823 329.069,37.895 329.225,38.101 329.225 C 38.307 329.225,38.574 329.601,38.694 330.060 C 38.835 330.598,39.088 330.787,39.405 330.591 C 39.748 330.379,39.820 330.487,39.643 330.949 C 39.475 331.385,39.592 331.610,39.985 331.610 C 40.313 331.610,40.701 331.923,40.848 332.306 C 40.995 332.689,41.400 333.270,41.749 333.598 C 42.221 334.042,42.230 334.093,41.784 333.797 C 41.454 333.579,41.789 334.160,42.528 335.089 C 43.827 336.725,44.488 337.303,43.892 336.282 C 43.732 336.009,43.985 336.122,44.455 336.534 C 44.925 336.946,45.223 337.423,45.117 337.594 C 44.818 338.079,46.939 340.392,47.414 340.099 C 47.663 339.945,47.720 340.026,47.552 340.297 C 47.380 340.575,47.655 340.904,48.248 341.129 C 48.786 341.334,49.368 341.736,49.541 342.023 C 49.767 342.399,49.638 342.383,49.082 341.968 C 48.658 341.651,49.100 342.225,50.066 343.243 C 51.032 344.262,51.999 344.985,52.215 344.852 C 52.431 344.718,52.493 344.795,52.352 345.023 C 52.048 345.514,58.959 351.902,60.537 352.589 C 61.138 352.850,61.636 353.292,61.643 353.570 C 61.654 354.031,64.780 356.660,65.316 356.660 C 65.442 356.660,66.094 357.209,66.764 357.879 C 67.435 358.550,68.164 358.986,68.385 358.850 C 68.606 358.713,68.787 358.757,68.787 358.947 C 68.787 359.412,71.189 361.166,71.825 361.166 C 72.103 361.166,72.251 361.296,72.153 361.454 C 72.055 361.613,72.421 362.034,72.966 362.391 C 73.510 362.748,73.956 362.948,73.956 362.836 C 73.956 362.724,74.306 362.932,74.734 363.298 C 75.162 363.664,75.830 364.011,76.218 364.068 C 76.606 364.125,76.987 364.360,77.064 364.591 C 77.141 364.821,77.457 365.010,77.767 365.010 C 78.077 365.010,78.330 365.198,78.330 365.428 C 78.330 365.658,78.944 366.102,79.694 366.416 C 80.445 366.729,81.173 367.171,81.312 367.396 C 81.452 367.622,81.732 367.703,81.936 367.577 C 82.140 367.452,82.306 367.526,82.306 367.743 C 82.306 368.104,83.369 368.609,84.584 368.826 C 84.853 368.874,85.358 369.198,85.706 369.546 C 86.054 369.894,86.497 370.179,86.691 370.179 C 86.884 370.179,87.698 370.624,88.499 371.167 C 89.300 371.711,90.113 372.058,90.306 371.939 C 90.498 371.820,90.656 371.878,90.656 372.067 C 90.656 372.492,93.453 373.757,94.392 373.757 C 94.768 373.757,94.966 373.936,94.831 374.155 C 94.692 374.381,95.026 374.553,95.603 374.553 C 96.162 374.553,96.620 374.742,96.620 374.974 C 96.620 375.205,96.799 375.284,97.018 375.149 C 97.237 375.014,97.416 375.123,97.416 375.391 C 97.416 375.659,97.528 375.765,97.667 375.627 C 97.805 375.489,98.292 375.638,98.749 375.958 C 99.206 376.279,99.916 376.541,100.325 376.541 C 100.735 376.541,101.588 376.910,102.221 377.360 C 102.854 377.811,103.732 378.207,104.171 378.240 C 104.611 378.273,104.970 378.441,104.970 378.613 C 104.970 378.786,105.104 378.905,105.268 378.879 C 105.432 378.853,105.701 378.876,105.865 378.929 C 106.029 378.982,106.297 379.064,106.461 379.110 C 106.625 379.156,107.028 379.293,107.356 379.414 C 109.938 380.367,111.758 380.966,112.512 381.111 C 113.001 381.205,113.651 381.490,113.957 381.743 C 114.263 381.997,114.513 382.071,114.513 381.909 C 114.513 381.746,114.786 381.839,115.119 382.115 C 115.452 382.392,115.838 382.505,115.977 382.366 C 116.116 382.228,116.438 382.288,116.694 382.501 C 116.950 382.713,117.504 382.953,117.924 383.034 C 118.344 383.115,118.956 383.286,119.284 383.415 C 119.612 383.544,121.491 384.029,123.459 384.493 C 125.427 384.957,127.306 385.442,127.634 385.571 C 128.612 385.956,128.935 386.046,131.014 386.509 C 133.684 387.104,133.760 387.118,140.358 388.309 C 143.529 388.882,146.392 389.456,146.720 389.585 C 147.048 389.714,147.853 389.848,148.509 389.883 C 149.165 389.918,150.149 390.065,150.696 390.209 C 151.243 390.353,152.316 390.555,153.082 390.657 C 163.508 392.052,173.407 392.814,185.005 393.112 C 190.426 393.252,194.955 393.517,195.069 393.701 C 195.340 394.139,204.374 394.138,204.374 393.700 C 204.374 393.515,208.713 393.254,214.016 393.120 C 227.774 392.773,246.829 391.118,248.893 390.090 C 249.229 389.922,250.040 389.808,250.696 389.834 C 251.352 389.861,251.978 389.785,252.087 389.665 C 252.197 389.545,254.165 389.135,256.461 388.755 C 263.499 387.588,271.361 385.988,271.571 385.680 C 271.680 385.519,272.396 385.261,273.161 385.107 C 276.055 384.521,283.718 382.369,284.177 382.013 C 284.441 381.809,284.828 381.747,285.038 381.877 C 285.248 382.006,285.479 381.960,285.553 381.774 C 285.626 381.588,288.101 380.670,291.054 379.734 C 294.006 378.797,296.524 377.870,296.650 377.673 C 296.776 377.477,298.028 376.898,299.433 376.388 C 300.838 375.878,302.828 375.077,303.855 374.609 C 304.882 374.141,305.896 373.757,306.108 373.757 C 306.321 373.757,306.554 373.618,306.627 373.447 C 306.747 373.166,309.858 371.610,313.221 370.149 C 313.931 369.840,314.513 369.460,314.513 369.305 C 314.513 369.149,315.835 368.395,317.451 367.628 C 319.067 366.861,320.633 365.994,320.930 365.702 C 321.228 365.409,322.501 364.584,323.759 363.867 C 325.018 363.150,326.315 362.296,326.642 361.969 C 326.969 361.642,327.239 361.522,327.243 361.701 C 327.246 361.881,327.380 361.848,327.541 361.628 C 328.010 360.985,330.725 359.046,331.156 359.046 C 331.372 359.046,332.055 358.545,332.673 357.932 C 333.291 357.320,334.647 356.238,335.686 355.528 C 336.725 354.817,337.575 354.090,337.575 353.912 C 337.575 353.733,338.335 353.071,339.264 352.440 C 341.515 350.912,347.731 344.974,352.956 339.364 C 355.483 336.650,355.852 336.220,358.250 333.201 C 359.205 331.998,360.217 330.819,360.500 330.580 C 360.782 330.342,361.152 329.780,361.321 329.333 C 361.491 328.885,362.207 327.828,362.912 326.983 C 364.601 324.958,366.998 321.392,366.998 320.904 C 366.998 320.691,367.226 320.374,367.505 320.199 C 368.097 319.827,369.513 317.694,369.167 317.694 C 369.038 317.694,369.278 317.202,369.702 316.600 C 370.126 315.999,370.597 315.104,370.750 314.612 C 370.903 314.120,371.177 313.718,371.358 313.718 C 371.540 313.718,372.092 312.957,372.585 312.028 C 373.077 311.098,373.721 309.891,374.014 309.344 C 374.308 308.797,374.549 308.160,374.550 307.928 C 374.552 307.696,374.929 307.102,375.388 306.609 C 375.847 306.116,376.115 305.605,375.983 305.473 C 375.852 305.341,375.988 304.951,376.287 304.605 C 376.585 304.259,377.160 303.082,377.564 301.988 C 377.969 300.895,378.529 299.553,378.809 299.006 C 379.090 298.459,379.320 297.788,379.322 297.515 C 379.323 297.242,379.503 297.018,379.722 297.018 C 379.940 297.018,380.119 296.700,380.119 296.311 C 380.119 295.922,380.362 295.251,380.658 294.820 C 380.954 294.389,381.698 292.515,382.310 290.656 C 382.922 288.797,383.655 286.918,383.939 286.481 C 384.222 286.044,384.484 285.507,384.521 285.288 C 384.558 285.070,384.731 284.516,384.904 284.059 C 385.078 283.602,385.314 282.707,385.428 282.071 C 385.740 280.333,387.714 273.530,388.307 272.149 C 388.593 271.483,388.925 270.378,389.046 269.693 C 389.167 269.008,389.609 266.959,390.029 265.138 C 390.448 263.318,391.014 260.532,391.285 258.946 C 391.556 257.361,391.912 256.064,392.076 256.064 C 392.241 256.064,392.326 255.616,392.266 255.070 C 392.206 254.523,392.311 254.076,392.500 254.076 C 392.689 254.076,392.847 253.405,392.853 252.584 C 392.858 251.764,393.031 250.361,393.238 249.466 C 393.759 247.211,395.626 230.284,395.626 227.816 C 395.626 226.567,395.778 225.892,396.025 226.045 C 396.285 226.205,396.363 225.209,396.249 223.197 C 396.139 221.258,396.238 219.903,396.514 219.570 C 397.134 218.824,397.160 176.998,396.541 176.613 C 396.272 176.446,396.148 175.237,396.218 173.455 C 396.281 171.867,396.173 170.470,395.979 170.350 C 395.785 170.230,395.626 169.428,395.626 168.569 C 395.626 166.402,394.515 155.697,393.792 150.895 C 393.463 148.708,393.113 146.292,393.015 145.527 C 392.751 143.475,392.385 141.855,392.030 141.166 C 391.857 140.831,391.508 139.215,391.256 137.575 C 391.004 135.934,390.638 134.056,390.443 133.400 C 390.248 132.744,390.011 131.759,389.916 131.213 C 389.338 127.885,389.114 126.955,388.718 126.243 C 388.474 125.805,388.259 125.089,388.239 124.652 C 388.219 124.215,388.067 123.499,387.901 123.062 C 387.094 120.936,386.856 120.216,386.716 119.482 C 386.479 118.237,385.672 115.173,385.408 114.513 C 385.276 114.185,385.102 113.566,385.020 113.139 C 384.938 112.711,384.651 112.221,384.384 112.051 C 384.116 111.881,384.067 111.739,384.274 111.736 C 384.482 111.732,384.451 111.529,384.206 111.284 C 383.961 111.038,383.844 110.620,383.946 110.353 C 384.048 110.087,383.855 109.639,383.517 109.359 C 383.179 109.078,382.899 108.468,382.894 108.003 C 382.889 107.538,382.540 106.397,382.118 105.467 C 381.696 104.538,381.438 103.777,381.544 103.777 C 381.651 103.777,381.514 103.375,381.241 102.883 C 380.742 101.984,380.658 101.748,380.567 100.971 C 380.539 100.739,380.340 100.659,380.124 100.792 C 379.890 100.937,379.837 100.758,379.993 100.353 C 380.184 99.853,380.113 99.758,379.728 99.996 C 379.419 100.187,379.297 100.166,379.433 99.946 C 379.561 99.739,379.428 99.041,379.138 98.393 C 378.443 96.841,378.036 95.752,377.899 95.070 C 377.837 94.763,377.580 94.386,377.328 94.230 C 377.077 94.074,376.912 93.877,376.963 93.793 C 377.171 93.444,376.458 91.849,376.093 91.849 C 375.876 91.849,375.802 91.682,375.927 91.479 C 376.053 91.275,375.972 90.995,375.746 90.855 C 375.255 90.552,373.641 87.475,373.973 87.475 C 374.100 87.475,373.721 86.586,373.129 85.499 C 372.537 84.412,371.872 83.634,371.651 83.771 C 371.430 83.908,371.360 83.840,371.496 83.620 C 371.632 83.400,371.302 82.622,370.762 81.891 C 370.223 81.159,369.781 80.310,369.781 80.004 C 369.781 79.135,368.474 77.137,367.906 77.137 C 367.625 77.137,367.396 76.856,367.396 76.513 C 367.396 75.790,365.120 72.321,364.333 71.844 C 364.040 71.667,363.899 71.363,364.019 71.168 C 364.139 70.974,363.896 70.633,363.480 70.410 C 363.064 70.188,362.343 69.195,361.877 68.203 C 361.411 67.212,360.852 66.402,360.634 66.402 C 360.417 66.402,360.239 66.123,360.239 65.782 C 360.239 65.441,360.048 65.280,359.814 65.424 C 359.581 65.569,359.292 65.311,359.171 64.851 C 359.051 64.392,358.765 64.016,358.535 64.016 C 358.306 64.016,358.236 63.898,358.380 63.754 C 358.770 63.364,357.829 62.393,357.349 62.690 C 357.121 62.831,357.044 62.769,357.178 62.552 C 357.481 62.062,356.329 60.349,355.883 60.625 C 355.704 60.736,355.313 60.525,355.015 60.158 C 354.549 59.583,354.556 59.540,355.070 59.849 C 355.780 60.277,353.550 57.401,352.288 56.262 C 351.804 55.825,351.292 55.494,351.151 55.527 C 351.010 55.560,350.934 55.442,350.982 55.265 C 351.204 54.447,339.227 43.410,338.694 43.943 C 338.590 44.047,338.072 43.641,337.543 43.040 L 336.581 41.948 337.773 42.942 L 338.966 43.936 337.972 42.806 C 336.844 41.523,335.270 40.507,335.812 41.412 C 335.989 41.707,335.302 41.098,334.285 40.060 C 333.267 39.021,332.160 38.171,331.824 38.171 C 331.488 38.171,331.213 37.992,331.213 37.773 C 331.213 37.555,331.075 37.420,330.906 37.475 C 330.606 37.573,329.861 37.031,328.510 35.731 C 327.352 34.619,323.957 32.619,323.600 32.839 C 323.413 32.955,323.260 32.849,323.260 32.604 C 323.260 32.360,323.089 32.266,322.880 32.395 C 322.671 32.524,322.208 32.184,321.851 31.639 C 321.249 30.721,319.886 29.955,319.185 30.140 C 319.021 30.183,318.887 30.029,318.887 29.798 C 318.887 29.566,318.718 29.481,318.513 29.608 C 318.307 29.735,317.815 29.513,317.419 29.114 C 316.229 27.915,314.519 26.987,314.043 27.281 C 313.749 27.463,313.707 27.377,313.920 27.032 C 314.159 26.646,314.063 26.575,313.563 26.767 C 313.155 26.924,312.980 26.870,313.126 26.632 C 313.385 26.213,311.741 25.417,311.233 25.716 C 311.069 25.813,310.934 25.692,310.934 25.447 C 310.934 25.203,310.755 25.113,310.537 25.249 C 310.318 25.384,310.139 25.294,310.139 25.050 C 310.139 24.805,309.976 24.706,309.776 24.830 C 309.576 24.954,309.352 24.919,309.278 24.754 C 309.011 24.152,306.547 23.023,306.101 23.299 C 305.835 23.463,305.750 23.408,305.898 23.169 C 306.152 22.757,304.186 21.736,303.137 21.736 C 302.833 21.736,302.584 21.593,302.584 21.417 C 302.584 21.242,302.316 21.202,301.988 21.327 C 301.660 21.453,301.392 21.339,301.392 21.074 C 301.392 20.801,301.123 20.694,300.775 20.828 C 300.421 20.963,300.261 20.897,300.400 20.671 C 300.534 20.455,300.311 20.278,299.904 20.278 C 299.498 20.278,298.924 20.055,298.630 19.781 C 298.195 19.378,298.149 19.397,298.386 19.881 C 298.546 20.209,298.349 20.076,297.947 19.586 C 297.545 19.096,296.725 18.654,296.123 18.605 C 295.522 18.555,295.030 18.362,295.030 18.177 C 295.030 17.991,294.650 17.960,294.185 18.107 C 293.559 18.306,293.421 18.244,293.654 17.868 C 293.877 17.507,293.776 17.433,293.306 17.614 C 292.941 17.754,292.644 17.676,292.644 17.440 C 292.644 17.205,292.381 17.113,292.060 17.236 C 291.739 17.360,291.369 17.286,291.238 17.074 C 291.106 16.861,290.832 16.790,290.629 16.916 C 290.425 17.041,290.258 16.944,290.258 16.700 C 290.258 16.455,290.068 16.373,289.834 16.517 C 289.601 16.661,289.199 16.506,288.940 16.171 C 288.378 15.445,282.915 13.739,282.323 14.105 C 282.095 14.246,281.909 14.152,281.909 13.897 C 281.909 13.642,281.640 13.537,281.312 13.663 C 280.984 13.789,280.716 13.699,280.716 13.464 C 280.716 13.229,280.453 13.137,280.132 13.260 C 279.811 13.383,279.447 13.321,279.324 13.121 C 279.201 12.922,278.837 12.859,278.516 12.982 C 278.195 13.106,277.932 12.989,277.932 12.724 C 277.932 12.458,277.670 12.342,277.349 12.465 C 277.028 12.588,276.652 12.506,276.513 12.282 C 276.375 12.058,276.002 11.974,275.685 12.096 C 275.322 12.235,275.211 12.149,275.387 11.866 C 275.582 11.549,275.342 11.496,274.579 11.688 C 273.786 11.887,273.572 11.832,273.786 11.484 C 273.993 11.150,273.825 11.075,273.223 11.232 C 272.752 11.355,272.366 11.310,272.366 11.131 C 272.366 10.846,270.122 10.272,268.390 10.113 C 268.062 10.083,267.614 10.011,267.396 9.953 C 267.177 9.896,266.685 9.881,266.302 9.920 C 265.919 9.958,265.606 9.781,265.606 9.525 C 265.606 9.230,265.251 9.148,264.637 9.302 C 264.103 9.436,263.552 9.359,263.410 9.130 C 263.269 8.902,262.826 8.819,262.425 8.946 C 262.025 9.073,261.573 8.977,261.421 8.731 C 261.270 8.486,260.729 8.390,260.220 8.518 C 259.710 8.646,259.175 8.559,259.030 8.324 C 258.885 8.090,258.507 7.998,258.190 8.119 C 257.827 8.258,257.716 8.173,257.891 7.890 C 258.082 7.582,257.840 7.502,257.129 7.638 C 256.556 7.748,256.170 7.705,256.270 7.542 C 256.502 7.167,252.239 6.619,251.697 6.954 C 251.474 7.091,251.292 6.995,251.292 6.739 C 251.292 6.444,250.794 6.333,249.928 6.434 C 249.178 6.522,248.652 6.452,248.759 6.279 C 248.979 5.923,246.848 5.760,244.036 5.916 C 242.880 5.980,242.147 5.854,242.147 5.590 C 242.147 5.313,241.599 5.247,240.607 5.406 C 239.649 5.559,238.963 5.485,238.793 5.210 C 238.640 4.962,238.095 4.875,237.551 5.012 C 237.018 5.145,236.269 5.110,235.886 4.933 C 235.502 4.756,234.115 4.557,232.803 4.492 C 227.889 4.246,227.230 4.165,226.953 3.777 C 226.676 3.389,177.127 3.094,174.254 3.463 M179.229 3.852 C 178.849 3.951,178.133 3.955,177.639 3.860 C 177.144 3.765,177.455 3.683,178.330 3.679 C 179.205 3.674,179.609 3.752,179.229 3.852 M222.569 3.852 C 222.189 3.951,221.473 3.955,220.979 3.860 C 220.484 3.765,220.795 3.683,221.670 3.679 C 222.545 3.674,222.949 3.752,222.569 3.852 M221.471 43.311 C 223.986 43.527,226.794 43.745,227.710 43.797 C 228.631 43.848,229.272 44.058,229.144 44.265 C 229.003 44.494,229.620 44.534,230.723 44.369 C 231.793 44.208,232.633 44.258,232.776 44.489 C 232.910 44.705,233.344 44.819,233.742 44.742 C 234.139 44.666,235.612 44.840,237.014 45.129 C 238.416 45.419,240.457 45.750,241.551 45.865 C 244.721 46.200,252.644 47.753,253.100 48.129 C 253.329 48.317,253.871 48.445,254.305 48.412 C 254.738 48.380,256.340 48.726,257.865 49.183 C 262.891 50.689,265.286 51.359,266.283 51.540 C 266.825 51.638,267.700 52.001,268.227 52.346 C 268.754 52.692,269.185 52.842,269.185 52.681 C 269.185 52.520,269.445 52.604,269.764 52.868 C 270.082 53.133,270.530 53.233,270.758 53.092 C 270.986 52.951,271.173 53.036,271.173 53.280 C 271.173 53.525,271.340 53.622,271.543 53.496 C 271.747 53.370,272.026 53.449,272.163 53.671 C 272.300 53.894,272.726 54.076,273.110 54.076 C 273.493 54.076,274.573 54.446,275.510 54.898 C 276.447 55.351,277.554 55.747,277.970 55.778 C 278.387 55.810,278.728 55.962,278.728 56.117 C 278.728 56.271,279.264 56.516,279.920 56.660 C 280.577 56.804,281.113 57.051,281.113 57.208 C 281.113 57.526,283.922 58.658,284.394 58.530 C 284.558 58.486,284.692 58.610,284.692 58.807 C 284.692 59.004,285.582 59.485,286.671 59.876 C 287.759 60.268,288.563 60.674,288.458 60.780 C 288.352 60.886,289.289 61.496,290.539 62.136 C 291.789 62.777,293.896 64.074,295.221 65.019 C 296.546 65.965,298.109 66.858,298.694 67.005 C 299.280 67.152,300.039 67.699,300.380 68.220 C 300.722 68.742,301.566 69.460,302.255 69.816 C 302.944 70.173,304.232 71.116,305.117 71.912 C 310.246 76.528,312.874 78.983,314.055 80.265 C 314.787 81.060,315.593 81.650,315.844 81.577 C 316.096 81.504,316.171 81.576,316.011 81.736 C 315.670 82.077,318.510 85.340,319.007 85.179 C 319.192 85.119,319.246 85.228,319.126 85.422 C 319.006 85.615,319.559 86.425,320.355 87.221 C 321.151 88.017,321.677 88.668,321.523 88.668 C 321.370 88.668,321.436 89.026,321.670 89.463 C 321.904 89.901,322.313 90.261,322.579 90.263 C 322.844 90.266,323.479 90.912,323.988 91.698 C 324.498 92.485,324.677 93.006,324.386 92.857 C 324.095 92.707,324.204 92.867,324.629 93.211 C 325.053 93.555,325.268 93.837,325.107 93.837 C 324.945 93.837,325.367 94.642,326.044 95.626 C 326.721 96.610,327.456 97.416,327.677 97.416 C 327.898 97.416,327.968 97.594,327.833 97.813 C 327.698 98.032,327.787 98.211,328.032 98.211 C 328.276 98.211,328.373 98.379,328.246 98.584 C 328.119 98.789,328.316 99.125,328.683 99.331 C 329.050 99.536,329.387 100.039,329.431 100.449 C 329.568 101.708,330.082 102.593,330.521 102.322 C 330.774 102.166,330.819 102.257,330.635 102.554 C 330.456 102.844,330.677 103.363,331.179 103.831 C 331.645 104.265,331.922 104.788,331.794 104.994 C 331.667 105.200,331.763 105.368,332.008 105.368 C 332.252 105.368,332.342 105.547,332.207 105.765 C 332.072 105.984,332.161 106.163,332.406 106.163 C 332.650 106.163,332.740 106.342,332.604 106.561 C 332.469 106.779,332.559 106.958,332.803 106.958 C 333.048 106.958,333.137 107.137,333.002 107.356 C 332.867 107.575,332.923 107.753,333.127 107.753 C 333.330 107.753,333.613 108.478,333.754 109.363 C 333.923 110.418,334.167 110.876,334.463 110.693 C 334.726 110.530,334.805 110.590,334.653 110.837 C 334.307 111.396,334.775 112.582,335.231 112.300 C 335.553 112.101,335.754 112.658,335.634 113.419 C 335.608 113.583,335.776 113.718,336.008 113.718 C 336.239 113.718,336.317 113.898,336.181 114.118 C 336.045 114.339,336.227 114.813,336.586 115.172 C 336.945 115.531,337.152 116.156,337.046 116.561 C 336.937 116.978,337.021 117.194,337.241 117.058 C 337.454 116.926,337.572 117.060,337.505 117.356 C 337.340 118.075,338.412 121.272,338.819 121.272 C 338.995 121.272,339.026 121.570,338.886 121.934 C 338.733 122.332,338.793 122.496,339.035 122.347 C 339.473 122.076,340.455 124.769,340.118 125.314 C 340.006 125.497,340.122 125.646,340.377 125.646 C 340.632 125.646,340.742 125.903,340.622 126.217 C 340.501 126.531,340.599 126.853,340.839 126.933 C 341.079 127.013,341.309 127.696,341.349 128.450 C 341.459 130.487,341.993 132.803,342.353 132.803 C 342.527 132.803,342.581 133.206,342.473 133.698 C 342.311 134.436,342.357 134.488,342.733 133.996 C 343.092 133.527,343.133 133.686,342.924 134.742 C 342.739 135.677,342.792 136.001,343.099 135.812 C 343.532 135.544,343.726 136.253,343.606 137.674 C 343.574 138.057,343.746 138.370,343.987 138.370 C 344.231 138.370,344.334 138.724,344.219 139.165 C 344.105 139.602,344.189 140.069,344.406 140.204 C 344.623 140.338,344.713 140.785,344.605 141.198 C 344.497 141.611,344.591 141.948,344.815 141.948 C 345.039 141.948,345.128 142.306,345.014 142.744 C 344.900 143.181,344.964 143.539,345.158 143.539 C 345.351 143.539,345.491 144.299,345.469 145.229 C 345.416 147.409,346.976 156.607,347.507 157.247 C 347.730 157.516,347.919 158.165,347.926 158.689 C 347.934 159.213,348.034 160.537,348.150 161.630 C 348.266 162.724,348.371 164.379,348.385 165.308 C 348.399 166.238,348.592 166.998,348.813 166.998 C 349.064 166.998,349.131 167.823,348.991 169.185 C 348.852 170.531,348.918 171.372,349.164 171.372 C 349.399 171.372,349.534 172.548,349.493 174.254 C 349.405 177.904,349.879 207.184,350.062 209.436 C 350.144 210.447,350.046 211.024,349.816 210.882 C 349.575 210.733,349.483 212.353,349.567 215.226 C 349.641 217.745,349.574 219.727,349.417 219.630 C 349.261 219.532,349.241 220.618,349.374 222.043 C 349.541 223.833,349.464 224.816,349.125 225.225 C 348.803 225.613,348.726 226.365,348.902 227.407 C 349.049 228.281,349.022 229.227,348.840 229.508 C 348.504 230.027,348.351 231.513,348.242 235.288 C 348.209 236.436,348.013 237.376,347.806 237.376 C 347.599 237.376,347.525 237.623,347.641 237.925 C 347.757 238.228,347.584 239.252,347.257 240.203 C 346.929 241.153,346.739 242.337,346.834 242.834 C 346.929 243.331,346.885 243.738,346.736 243.738 C 346.377 243.738,345.462 249.672,345.749 250.137 C 345.871 250.335,345.774 250.497,345.532 250.497 C 345.246 250.497,345.184 250.981,345.354 251.889 C 345.522 252.781,345.461 253.280,345.186 253.280 C 344.950 253.280,344.853 253.531,344.970 253.837 C 345.087 254.142,344.992 254.511,344.757 254.656 C 344.523 254.801,344.441 255.356,344.574 255.889 C 344.732 256.519,344.648 256.859,344.335 256.859 C 344.069 256.859,343.952 257.122,344.075 257.443 C 344.198 257.764,344.128 258.132,343.919 258.261 C 343.710 258.390,343.539 258.897,343.539 259.387 C 343.539 259.877,343.349 260.468,343.117 260.700 C 342.885 260.932,342.661 261.773,342.620 262.567 C 342.578 263.362,342.390 264.013,342.200 264.014 C 342.011 264.015,341.947 264.365,342.059 264.792 C 342.170 265.219,342.084 265.627,341.867 265.700 C 341.649 265.772,341.412 266.452,341.338 267.210 C 341.264 267.968,341.170 268.633,341.129 268.688 C 341.087 268.743,341.016 268.921,340.971 269.085 C 340.925 269.250,340.658 269.920,340.378 270.577 C 340.097 271.233,339.844 272.259,339.815 272.857 C 339.785 273.456,339.538 274.032,339.264 274.137 C 338.991 274.243,338.767 274.524,338.767 274.762 C 338.767 275.001,338.991 275.083,339.264 274.944 C 339.538 274.806,339.417 274.972,338.995 275.314 C 338.574 275.656,338.342 276.049,338.479 276.186 C 338.617 276.324,338.462 276.704,338.134 277.032 C 337.807 277.359,337.606 277.828,337.688 278.074 C 337.770 278.320,337.589 278.770,337.285 279.074 C 336.982 279.377,336.826 279.865,336.938 280.158 C 337.050 280.451,336.968 280.798,336.755 280.929 C 336.543 281.061,336.472 281.335,336.597 281.538 C 336.723 281.742,336.642 281.909,336.418 281.909 C 336.193 281.909,336.112 282.177,336.238 282.505 C 336.364 282.833,336.278 283.101,336.047 283.101 C 335.599 283.101,333.359 287.537,333.136 288.867 C 333.062 289.304,332.892 289.751,332.757 289.861 C 332.177 290.332,330.874 293.369,331.130 293.653 C 331.285 293.824,331.207 293.847,330.956 293.704 C 330.448 293.414,329.888 294.496,330.247 295.076 C 330.373 295.280,330.262 295.398,330.000 295.338 C 329.737 295.278,329.339 295.765,329.115 296.421 C 328.891 297.078,328.511 297.746,328.270 297.906 C 328.030 298.067,327.974 298.201,328.147 298.205 C 328.319 298.208,328.080 298.613,327.616 299.105 C 326.482 300.307,325.612 302.020,325.960 302.368 C 326.115 302.524,326.064 302.591,325.845 302.518 C 325.626 302.445,325.414 302.536,325.374 302.720 C 325.334 302.904,324.994 303.279,324.618 303.554 C 324.192 303.866,324.055 304.250,324.255 304.574 C 324.467 304.917,324.421 304.997,324.117 304.809 C 323.707 304.556,323.479 305.031,323.611 305.865 C 323.637 306.029,323.461 306.118,323.221 306.064 C 322.980 306.009,322.186 306.859,321.456 307.952 C 320.726 309.046,319.536 310.525,318.812 311.241 C 318.088 311.956,317.536 312.706,317.587 312.908 C 317.637 313.109,317.235 313.624,316.692 314.050 C 316.150 314.477,315.706 314.976,315.706 315.159 C 315.706 315.588,311.223 319.838,310.856 319.757 C 310.703 319.723,309.921 320.498,309.118 321.478 C 308.315 322.458,307.420 323.260,307.129 323.260 C 306.838 323.260,306.418 323.574,306.195 323.956 C 305.972 324.339,305.784 324.496,305.777 324.305 C 305.771 324.114,305.499 324.179,305.173 324.450 C 304.848 324.720,304.679 325.100,304.799 325.294 C 304.919 325.487,304.812 325.646,304.560 325.646 C 304.309 325.646,303.748 326.049,303.314 326.541 C 302.879 327.033,302.655 327.184,302.814 326.877 C 302.974 326.570,302.272 326.892,301.254 327.592 C 300.236 328.292,299.404 329.114,299.404 329.418 C 299.404 329.722,299.090 329.947,298.708 329.919 C 297.900 329.860,295.825 331.127,295.825 331.680 C 295.825 331.886,295.672 331.961,295.486 331.845 C 295.300 331.730,294.807 331.912,294.393 332.249 C 293.978 332.586,293.889 332.732,294.197 332.572 C 294.577 332.375,294.659 332.438,294.455 332.769 C 294.289 333.036,293.904 333.159,293.598 333.042 C 293.292 332.924,293.042 332.997,293.042 333.203 C 293.042 333.409,292.505 333.856,291.849 334.195 C 291.193 334.534,290.656 334.683,290.656 334.527 C 290.656 334.370,290.374 334.589,290.030 335.013 C 289.686 335.438,289.520 335.517,289.662 335.189 C 289.804 334.861,289.638 334.940,289.294 335.364 C 288.950 335.789,288.665 335.968,288.662 335.762 C 288.659 335.556,288.487 335.654,288.281 335.981 C 288.075 336.307,287.675 336.593,287.392 336.616 C 286.009 336.730,285.855 336.810,286.124 337.276 C 286.281 337.550,286.268 337.645,286.095 337.489 C 285.922 337.333,285.028 337.646,284.109 338.184 C 283.189 338.723,282.318 339.045,282.173 338.899 C 282.028 338.754,281.909 338.863,281.909 339.141 C 281.909 339.428,281.650 339.548,281.312 339.419 C 280.984 339.293,280.716 339.374,280.716 339.599 C 280.716 339.823,280.537 339.897,280.318 339.761 C 280.099 339.626,279.920 339.700,279.920 339.924 C 279.920 340.149,279.670 340.237,279.365 340.120 C 279.059 340.002,278.477 340.241,278.072 340.650 C 277.094 341.637,274.137 342.902,273.593 342.566 C 273.356 342.419,273.161 342.508,273.161 342.763 C 273.161 343.018,272.893 343.123,272.565 342.997 C 272.237 342.871,271.968 342.936,271.968 343.141 C 271.968 343.346,271.700 343.411,271.372 343.285 C 271.044 343.159,270.775 343.249,270.775 343.484 C 270.775 343.719,270.478 343.797,270.114 343.658 C 269.750 343.518,269.553 343.568,269.677 343.769 C 269.801 343.971,269.413 344.153,268.815 344.174 C 268.217 344.196,266.669 344.716,265.375 345.330 C 264.081 345.945,262.530 346.449,261.928 346.451 C 261.327 346.453,260.835 346.623,260.835 346.828 C 260.835 347.034,260.572 347.102,260.251 346.978 C 259.930 346.855,259.569 346.913,259.449 347.108 C 259.329 347.302,258.742 347.449,258.144 347.434 C 256.257 347.386,252.397 348.403,252.967 348.799 C 253.285 349.019,252.983 349.056,252.171 348.896 C 251.264 348.717,250.552 348.841,249.852 349.299 C 249.297 349.663,248.594 349.866,248.291 349.749 C 247.987 349.633,247.624 349.723,247.484 349.950 C 247.344 350.177,246.802 350.255,246.279 350.124 C 245.697 349.978,245.328 350.060,245.328 350.334 C 245.328 350.610,244.957 350.689,244.358 350.539 C 243.813 350.402,243.269 350.489,243.115 350.738 C 242.954 350.998,242.287 351.091,241.500 350.963 C 240.763 350.844,240.159 350.897,240.159 351.082 C 240.159 351.267,238.863 351.431,237.279 351.446 C 235.696 351.461,234.342 351.646,234.272 351.857 C 234.201 352.069,233.899 352.148,233.601 352.033 C 232.954 351.785,220.351 352.989,219.759 353.356 C 218.053 354.410,184.534 354.212,178.632 353.113 C 177.267 352.858,174.558 352.613,172.612 352.568 C 170.666 352.522,169.139 352.374,169.221 352.238 C 169.394 351.947,162.533 351.285,160.934 351.437 C 160.333 351.495,159.841 351.349,159.841 351.114 C 159.841 350.838,159.278 350.776,158.250 350.941 C 157.116 351.122,156.660 351.054,156.660 350.704 C 156.660 350.378,156.325 350.296,155.666 350.461 C 155.046 350.617,154.672 350.542,154.672 350.263 C 154.672 349.986,154.301 349.908,153.702 350.058 C 153.169 350.192,152.616 350.113,152.474 349.883 C 152.332 349.653,151.919 349.501,151.555 349.546 C 151.192 349.591,150.391 349.420,149.775 349.168 C 148.407 348.605,147.475 348.566,148.310 349.105 C 148.675 349.341,148.721 349.493,148.429 349.497 C 148.167 349.500,147.809 349.257,147.634 348.956 C 147.273 348.335,142.150 347.065,141.308 347.388 C 141.004 347.505,140.755 347.381,140.755 347.113 C 140.755 346.823,140.436 346.711,139.960 346.835 C 139.523 346.949,139.165 346.860,139.165 346.636 C 139.165 346.412,138.807 346.323,138.370 346.437 C 137.933 346.551,137.473 346.480,137.349 346.278 C 137.224 346.077,136.968 346.007,136.779 346.123 C 136.591 346.240,136.320 346.146,136.177 345.915 C 136.034 345.684,135.552 345.610,135.106 345.752 C 134.612 345.909,134.390 345.855,134.538 345.615 C 134.672 345.397,134.471 345.112,134.091 344.980 C 131.104 343.945,129.831 343.609,129.551 343.782 C 129.371 343.893,129.225 343.775,129.225 343.520 C 129.225 343.265,128.956 343.159,128.628 343.285 C 128.300 343.411,128.032 343.321,128.032 343.086 C 128.032 342.851,127.763 342.761,127.435 342.887 C 127.107 343.013,126.839 342.924,126.839 342.689 C 126.839 342.453,126.576 342.362,126.255 342.485 C 125.934 342.608,125.564 342.535,125.433 342.322 C 125.301 342.109,125.027 342.038,124.823 342.164 C 124.620 342.290,124.453 342.193,124.453 341.948 C 124.453 341.704,124.274 341.614,124.056 341.750 C 123.837 341.885,123.658 341.808,123.658 341.579 C 123.658 341.030,120.868 339.878,120.179 340.142 C 119.844 340.271,119.748 340.175,119.925 339.888 C 120.117 339.578,119.987 339.513,119.528 339.689 C 119.152 339.833,118.943 339.793,119.063 339.600 C 119.325 339.176,118.169 338.673,117.658 338.988 C 117.459 339.111,117.296 339.012,117.296 338.767 C 117.296 338.523,117.117 338.433,116.899 338.569 C 116.680 338.704,116.501 338.595,116.501 338.327 C 116.501 338.059,116.390 337.950,116.255 338.086 C 116.119 338.221,115.739 338.062,115.408 337.732 C 115.078 337.401,114.553 337.229,114.242 337.348 C 113.931 337.468,113.774 337.407,113.894 337.214 C 114.173 336.762,112.984 336.297,112.428 336.641 C 112.178 336.795,112.121 336.714,112.288 336.443 C 112.546 336.026,112.050 335.800,111.203 335.947 C 111.023 335.978,110.981 335.833,111.109 335.625 C 111.328 335.271,110.404 334.818,109.064 334.621 C 108.746 334.575,108.323 334.281,108.125 333.968 C 107.928 333.655,107.763 333.534,107.760 333.698 C 107.756 333.862,107.389 333.632,106.944 333.186 C 106.498 332.741,105.962 332.483,105.751 332.613 C 105.540 332.744,105.368 332.684,105.368 332.482 C 105.368 332.081,102.533 330.096,101.717 329.926 C 101.439 329.868,100.894 329.434,100.505 328.961 C 100.116 328.488,98.994 327.712,98.010 327.236 C 97.027 326.760,96.223 326.197,96.223 325.985 C 96.223 325.773,96.056 325.702,95.853 325.828 C 95.495 326.049,94.850 325.364,94.837 324.751 C 94.834 324.587,94.684 324.498,94.505 324.553 C 94.325 324.607,94.003 324.339,93.789 323.956 C 93.575 323.574,93.144 323.260,92.832 323.260 C 92.520 323.260,91.972 322.813,91.614 322.266 C 91.255 321.720,90.803 321.272,90.607 321.272 C 90.412 321.272,88.995 319.975,87.458 318.390 C 85.921 316.804,83.686 314.496,82.491 313.261 C 81.296 312.025,80.318 310.860,80.318 310.672 C 80.318 310.484,79.943 310.096,79.484 309.810 C 79.025 309.523,78.749 309.190,78.871 309.068 C 78.992 308.947,78.777 308.557,78.394 308.201 C 77.924 307.766,77.897 307.671,78.311 307.909 C 78.650 308.104,78.268 307.657,77.464 306.915 C 76.660 306.173,75.944 305.298,75.874 304.970 C 75.752 304.402,72.045 298.628,71.535 298.211 C 71.191 297.930,70.232 296.113,70.140 295.568 C 70.097 295.317,69.680 294.729,69.212 294.261 C 68.744 293.793,68.467 293.238,68.597 293.027 C 68.728 292.817,68.634 292.644,68.390 292.644 C 68.145 292.644,68.037 292.495,68.150 292.313 C 68.262 292.131,67.915 291.335,67.378 290.545 C 66.841 289.754,66.402 288.840,66.402 288.514 C 66.402 288.187,66.224 287.810,66.006 287.675 C 65.789 287.541,65.413 287.061,65.171 286.610 C 64.860 286.028,64.858 285.867,65.165 286.056 C 65.434 286.223,65.508 286.092,65.361 285.709 C 65.232 285.371,64.965 285.193,64.769 285.314 C 64.574 285.435,64.414 285.345,64.414 285.113 C 64.414 284.344,64.334 284.106,63.576 282.620 C 63.162 281.809,62.823 280.875,62.823 280.544 C 62.823 280.214,62.348 278.909,61.767 277.646 C 61.186 276.382,60.748 275.185,60.794 274.987 C 60.840 274.788,60.698 274.515,60.480 274.380 C 60.261 274.245,59.980 273.553,59.855 272.842 C 59.729 272.131,59.377 270.883,59.072 270.069 C 58.767 269.255,58.406 268.052,58.271 267.396 C 57.959 265.889,56.879 262.081,56.465 261.034 C 55.970 259.779,55.317 257.199,55.056 255.466 C 54.925 254.592,54.447 252.087,53.993 249.901 C 53.540 247.714,53.148 245.567,53.123 245.129 C 53.097 244.692,52.927 244.102,52.745 243.818 C 52.563 243.534,52.523 243.019,52.656 242.674 C 52.788 242.329,52.737 241.845,52.542 241.600 C 51.188 239.891,49.009 204.547,49.487 192.048 C 50.161 174.450,51.730 155.965,52.597 155.408 C 52.818 155.266,52.881 154.844,52.738 154.471 C 52.595 154.097,52.650 153.140,52.861 152.343 C 53.271 150.797,53.560 149.305,54.064 146.123 C 54.614 142.657,56.209 135.793,56.515 135.578 C 56.678 135.464,56.897 134.927,57.002 134.385 C 57.765 130.472,60.200 122.641,60.939 121.729 C 61.347 121.224,61.330 121.180,60.835 121.471 C 60.351 121.756,60.327 121.713,60.706 121.244 C 60.963 120.926,61.555 119.595,62.022 118.285 C 63.230 114.896,64.539 111.974,64.994 111.652 C 65.209 111.500,65.255 111.246,65.097 111.088 C 64.939 110.930,65.059 110.517,65.363 110.171 C 65.668 109.826,66.490 108.156,67.191 106.461 C 67.891 104.766,68.597 103.380,68.761 103.380 C 69.048 103.380,70.025 101.614,70.197 100.785 C 70.283 100.366,72.035 97.597,72.758 96.736 C 72.980 96.472,73.168 96.114,73.177 95.941 C 73.186 95.768,73.723 95.007,74.370 94.250 C 75.017 93.492,75.547 92.669,75.547 92.420 C 75.547 92.171,76.083 91.405,76.740 90.719 C 77.396 90.032,77.932 89.290,77.932 89.069 C 77.932 88.849,78.111 88.668,78.330 88.668 C 78.549 88.668,78.728 88.464,78.728 88.214 C 78.728 87.964,79.237 87.273,79.860 86.678 C 80.482 86.083,81.244 85.237,81.552 84.797 C 82.899 82.873,87.771 77.802,88.767 77.286 C 89.369 76.974,89.861 76.539,89.861 76.320 C 89.861 75.814,92.681 73.327,93.107 73.457 C 93.281 73.510,93.708 73.121,94.055 72.592 C 94.709 71.593,99.443 67.946,101.677 66.719 C 102.381 66.332,104.137 65.208,105.579 64.221 C 107.021 63.233,108.458 62.425,108.773 62.425 C 109.087 62.425,109.344 62.247,109.344 62.028 C 109.344 61.809,109.588 61.630,109.887 61.630 C 110.185 61.630,110.856 61.296,111.378 60.886 C 111.899 60.477,114.294 59.289,116.700 58.246 C 119.105 57.202,121.163 56.216,121.272 56.054 C 121.382 55.892,123.260 55.177,125.447 54.464 C 127.634 53.752,129.602 53.065,129.821 52.938 C 130.040 52.811,130.569 52.652,130.997 52.586 C 131.425 52.519,131.872 52.320,131.991 52.142 C 132.110 51.964,132.565 51.723,133.002 51.605 C 133.439 51.488,135.944 50.809,138.569 50.097 C 141.193 49.386,143.564 48.797,143.837 48.789 C 144.110 48.781,144.334 48.613,144.334 48.416 C 144.334 48.219,144.714 48.178,145.179 48.326 C 145.644 48.473,146.136 48.415,146.272 48.195 C 146.409 47.976,149.920 47.231,154.076 46.540 C 158.231 45.850,162.167 45.187,162.823 45.069 C 163.479 44.950,164.479 44.810,165.044 44.757 C 165.609 44.704,166.308 44.515,166.596 44.336 C 166.976 44.102,167.028 44.166,166.784 44.571 C 166.498 45.045,166.548 45.048,167.115 44.588 C 167.528 44.253,168.180 44.146,168.820 44.307 C 169.391 44.450,170.064 44.399,170.316 44.193 C 170.569 43.988,173.996 43.616,177.932 43.366 C 181.869 43.117,186.074 42.850,187.276 42.773 C 191.314 42.513,216.850 42.915,221.471 43.311 M148.869 122.128 C 148.781 122.270,148.050 122.368,147.244 122.345 C 146.439 122.322,145.714 122.500,145.634 122.740 C 145.554 122.980,145.184 123.096,144.812 122.999 C 143.490 122.653,136.487 128.032,137.057 128.954 C 137.190 129.171,137.113 129.232,136.884 129.091 C 136.421 128.804,135.044 130.657,135.351 131.153 C 135.458 131.327,135.197 131.767,134.771 132.132 C 134.345 132.497,133.996 133.066,133.996 133.396 C 133.996 133.726,133.822 133.996,133.609 133.996 C 133.146 133.996,131.859 136.365,132.159 136.665 C 132.274 136.780,132.108 137.134,131.790 137.452 C 131.432 137.810,131.304 138.397,131.454 138.995 C 131.607 139.604,131.525 139.960,131.232 139.960 C 130.977 139.960,130.879 140.139,131.014 140.358 C 131.149 140.577,131.127 140.970,130.964 141.233 C 129.990 142.809,129.969 254.594,130.943 255.309 C 131.209 255.505,131.440 256.955,131.590 259.367 C 131.601 259.544,131.773 259.589,131.971 259.466 C 132.169 259.344,132.230 259.630,132.107 260.101 C 131.954 260.685,132.028 260.869,132.338 260.678 C 132.631 260.497,132.712 260.611,132.564 260.995 C 132.433 261.338,132.746 262.007,133.294 262.555 C 134.385 263.645,136.216 266.592,135.546 266.178 C 135.304 266.028,135.413 266.374,135.788 266.946 C 136.162 267.517,136.602 267.903,136.765 267.802 C 136.928 267.701,137.490 268.090,138.014 268.665 C 138.538 269.240,138.698 269.565,138.370 269.386 C 138.042 269.208,138.299 269.626,138.941 270.316 C 139.583 271.006,140.433 271.571,140.830 271.571 C 141.226 271.571,141.551 271.712,141.551 271.885 C 141.551 272.497,146.285 274.364,148.575 274.655 C 149.851 274.817,172.545 274.950,199.006 274.950 C 249.982 274.950,251.267 274.907,253.330 273.118 C 253.807 272.704,254.436 272.366,254.727 272.366 C 255.510 272.366,259.245 269.982,259.245 269.482 C 259.245 269.246,259.358 269.166,259.496 269.304 C 259.635 269.442,260.268 268.838,260.904 267.960 C 261.540 267.082,262.310 266.268,262.615 266.151 C 262.921 266.034,263.082 265.708,262.974 265.426 C 262.866 265.144,263.033 264.816,263.346 264.695 C 263.659 264.575,264.497 263.076,265.208 261.364 C 265.918 259.651,266.612 258.161,266.749 258.052 C 266.886 257.942,267.003 257.674,267.009 257.455 C 267.015 257.237,267.462 255.358,268.003 253.280 L 268.986 249.503 268.986 198.807 C 268.986 146.094,268.782 139.577,267.165 140.577 C 266.969 140.698,266.906 140.541,267.026 140.228 C 267.146 139.916,266.877 139.057,266.427 138.319 C 265.977 137.582,265.609 136.656,265.608 136.263 C 265.605 134.941,263.790 132.008,261.590 129.772 C 261.133 129.307,260.538 128.502,260.268 127.982 C 259.997 127.463,259.572 127.081,259.323 127.133 C 259.074 127.186,258.677 126.868,258.441 126.426 C 258.205 125.985,257.841 125.730,257.631 125.859 C 257.422 125.988,257.140 125.804,257.004 125.450 C 256.868 125.095,256.502 124.903,256.190 125.022 C 255.832 125.160,255.729 125.071,255.909 124.779 C 256.098 124.473,255.976 124.402,255.545 124.567 C 255.188 124.704,254.773 124.617,254.623 124.374 C 254.458 124.107,254.531 124.045,254.809 124.217 C 255.062 124.373,255.268 124.390,255.268 124.256 C 255.268 123.710,251.493 122.390,249.860 122.366 C 248.898 122.351,248.111 122.233,248.111 122.104 C 248.111 121.781,149.069 121.805,148.869 122.128 " stroke="none" fill="#1c1c1c" fill-rule="evenodd"></path><path id="path1" d="M177.639 3.860 C 178.133 3.955,178.849 3.951,179.229 3.852 C 179.609 3.752,179.205 3.674,178.330 3.679 C 177.455 3.683,177.144 3.765,177.639 3.860 M220.979 3.860 C 221.473 3.955,222.189 3.951,222.569 3.852 C 222.949 3.752,222.545 3.674,221.670 3.679 C 220.795 3.683,220.484 3.765,220.979 3.860 M166.302 4.648 C 166.685 4.748,167.311 4.748,167.694 4.648 C 168.077 4.548,167.763 4.466,166.998 4.466 C 166.233 4.466,165.919 4.548,166.302 4.648 M231.511 4.648 C 231.894 4.748,232.520 4.748,232.903 4.648 C 233.285 4.548,232.972 4.466,232.207 4.466 C 231.441 4.466,231.128 4.548,231.511 4.648 M155.169 5.841 C 155.552 5.941,156.178 5.941,156.561 5.841 C 156.943 5.741,156.630 5.659,155.865 5.659 C 155.099 5.659,154.786 5.741,155.169 5.841 M242.644 5.841 C 243.027 5.941,243.653 5.941,244.036 5.841 C 244.418 5.741,244.105 5.659,243.340 5.659 C 242.575 5.659,242.261 5.741,242.644 5.841 M116.700 14.101 C 115.164 14.804,115.878 14.814,117.694 14.115 C 118.459 13.821,118.817 13.574,118.489 13.567 C 118.161 13.560,117.356 13.801,116.700 14.101 M336.610 115.706 C 336.756 116.252,337.041 116.968,337.244 117.296 C 337.500 117.711,337.531 117.589,337.347 116.899 C 337.200 116.352,336.915 115.636,336.712 115.308 C 336.456 114.894,336.425 115.015,336.610 115.706 M173.888 121.968 C 187.409 122.026,209.417 122.026,222.794 121.968 C 236.172 121.910,225.109 121.863,198.211 121.863 C 171.312 121.863,160.367 121.910,173.888 121.968 M340.811 127.237 C 340.811 127.565,340.965 128.191,341.153 128.628 C 341.368 129.129,341.495 129.203,341.495 128.827 C 341.495 128.499,341.341 127.873,341.153 127.435 C 340.938 126.934,340.811 126.861,340.811 127.237 M130.510 143.539 C 130.510 144.304,130.592 144.617,130.692 144.235 C 130.792 143.852,130.792 143.226,130.692 142.843 C 130.592 142.460,130.510 142.773,130.510 143.539 M348.816 168.588 C 348.816 169.573,348.894 169.975,348.988 169.483 C 349.083 168.991,349.083 168.186,348.988 167.694 C 348.894 167.202,348.816 167.604,348.816 168.588 M349.229 173.559 C 349.231 174.871,349.305 175.360,349.394 174.645 C 349.482 173.930,349.480 172.857,349.389 172.259 C 349.299 171.662,349.226 172.247,349.229 173.559 M396.946 188.469 C 396.946 189.891,397.019 190.472,397.107 189.761 C 397.195 189.051,397.195 187.888,397.107 187.177 C 397.019 186.466,396.946 187.048,396.946 188.469 M49.463 198.211 C 49.464 201.491,49.525 202.780,49.600 201.075 C 49.675 199.370,49.674 196.687,49.599 195.111 C 49.524 193.536,49.463 194.930,49.463 198.211 M396.953 208.350 C 396.953 209.990,397.023 210.661,397.109 209.841 C 397.195 209.021,397.195 207.679,397.109 206.859 C 397.023 206.039,396.953 206.710,396.953 208.350 M396.177 220.056 C 396.056 220.372,396.027 220.953,396.112 221.349 C 396.210 221.798,396.346 221.582,396.475 220.775 C 396.691 219.421,396.550 219.082,396.177 220.056 M349.225 223.062 C 349.225 224.264,349.299 224.756,349.390 224.155 C 349.481 223.554,349.481 222.570,349.390 221.968 C 349.299 221.367,349.225 221.859,349.225 223.062 M4.864 238.569 C 4.864 239.334,4.945 239.647,5.045 239.264 C 5.145 238.882,5.145 238.255,5.045 237.873 C 4.945 237.490,4.864 237.803,4.864 238.569 M5.659 244.930 C 5.659 245.696,5.741 246.009,5.841 245.626 C 5.941 245.244,5.941 244.617,5.841 244.235 C 5.741 243.852,5.659 244.165,5.659 244.930 M130.518 253.479 C 130.522 254.354,130.604 254.665,130.699 254.170 C 130.794 253.676,130.790 252.960,130.691 252.580 C 130.591 252.200,130.513 252.604,130.518 253.479 M130.894 255.865 C 130.894 256.302,131.038 257.107,131.213 257.654 C 131.465 258.441,131.531 258.483,131.531 257.853 C 131.531 257.416,131.388 256.610,131.213 256.064 C 130.961 255.277,130.894 255.235,130.894 255.865 M9.224 263.817 C 9.224 264.254,9.368 265.060,9.543 265.606 C 9.795 266.393,9.861 266.435,9.861 265.805 C 9.861 265.368,9.718 264.563,9.543 264.016 C 9.291 263.229,9.224 263.187,9.224 263.817 M13.575 279.920 C 13.575 280.249,13.729 280.875,13.917 281.312 C 14.132 281.813,14.258 281.887,14.258 281.511 C 14.258 281.183,14.104 280.557,13.917 280.119 C 13.701 279.618,13.575 279.545,13.575 279.920 M24.680 307.157 C 24.680 307.376,24.936 308.002,25.249 308.549 C 25.561 309.095,25.817 309.364,25.817 309.145 C 25.817 308.926,25.561 308.300,25.249 307.753 C 24.936 307.207,24.680 306.938,24.680 307.157 M274.553 342.161 C 273.897 342.462,273.628 342.709,273.956 342.712 C 274.284 342.714,275.000 342.460,275.547 342.147 C 276.804 341.428,276.132 341.438,274.553 342.161 M215.810 353.760 C 216.304 353.855,217.020 353.852,217.400 353.752 C 217.780 353.653,217.376 353.575,216.501 353.579 C 215.626 353.584,215.315 353.665,215.810 353.760 M194.358 354.174 C 197.488 354.241,202.498 354.241,205.491 354.174 C 208.485 354.106,205.924 354.051,199.801 354.052 C 193.678 354.052,191.229 354.107,194.358 354.174 " stroke="none" fill="#201c1c" fill-rule="evenodd"></path><path id="path2" d="M177.639 3.860 C 178.133 3.955,178.849 3.951,179.229 3.852 C 179.609 3.752,179.205 3.674,178.330 3.679 C 177.455 3.683,177.144 3.765,177.639 3.860 M220.979 3.860 C 221.473 3.955,222.189 3.951,222.569 3.852 C 222.949 3.752,222.545 3.674,221.670 3.679 C 220.795 3.683,220.484 3.765,220.979 3.860 M166.302 4.648 C 166.685 4.748,167.311 4.748,167.694 4.648 C 168.077 4.548,167.763 4.466,166.998 4.466 C 166.233 4.466,165.919 4.548,166.302 4.648 M231.511 4.648 C 231.894 4.748,232.520 4.748,232.903 4.648 C 233.285 4.548,232.972 4.466,232.207 4.466 C 231.441 4.466,231.128 4.548,231.511 4.648 M155.169 5.841 C 155.552 5.941,156.178 5.941,156.561 5.841 C 156.943 5.741,156.630 5.659,155.865 5.659 C 155.099 5.659,154.786 5.741,155.169 5.841 M242.644 5.841 C 243.027 5.941,243.653 5.941,244.036 5.841 C 244.418 5.741,244.105 5.659,243.340 5.659 C 242.575 5.659,242.261 5.741,242.644 5.841 M116.700 14.101 C 115.164 14.804,115.878 14.814,117.694 14.115 C 118.459 13.821,118.817 13.574,118.489 13.567 C 118.161 13.560,117.356 13.801,116.700 14.101 M336.610 115.706 C 336.756 116.252,337.041 116.968,337.244 117.296 C 337.500 117.711,337.531 117.589,337.347 116.899 C 337.200 116.352,336.915 115.636,336.712 115.308 C 336.456 114.894,336.425 115.015,336.610 115.706 M173.888 121.968 C 187.409 122.026,209.417 122.026,222.794 121.968 C 236.172 121.910,225.109 121.863,198.211 121.863 C 171.312 121.863,160.367 121.910,173.888 121.968 M340.811 127.237 C 340.811 127.565,340.965 128.191,341.153 128.628 C 341.368 129.129,341.495 129.203,341.495 128.827 C 341.495 128.499,341.341 127.873,341.153 127.435 C 340.938 126.934,340.811 126.861,340.811 127.237 M130.510 143.539 C 130.510 144.304,130.592 144.617,130.692 144.235 C 130.792 143.852,130.792 143.226,130.692 142.843 C 130.592 142.460,130.510 142.773,130.510 143.539 M348.816 168.588 C 348.816 169.573,348.894 169.975,348.988 169.483 C 349.083 168.991,349.083 168.186,348.988 167.694 C 348.894 167.202,348.816 167.604,348.816 168.588 M349.229 173.559 C 349.231 174.871,349.305 175.360,349.394 174.645 C 349.482 173.930,349.480 172.857,349.389 172.259 C 349.299 171.662,349.226 172.247,349.229 173.559 M396.946 188.469 C 396.946 189.891,397.019 190.472,397.107 189.761 C 397.195 189.051,397.195 187.888,397.107 187.177 C 397.019 186.466,396.946 187.048,396.946 188.469 M49.463 198.211 C 49.464 201.491,49.525 202.780,49.600 201.075 C 49.675 199.370,49.674 196.687,49.599 195.111 C 49.524 193.536,49.463 194.930,49.463 198.211 M396.953 208.350 C 396.953 209.990,397.023 210.661,397.109 209.841 C 397.195 209.021,397.195 207.679,397.109 206.859 C 397.023 206.039,396.953 206.710,396.953 208.350 M396.177 220.056 C 396.056 220.372,396.027 220.953,396.112 221.349 C 396.210 221.798,396.346 221.582,396.475 220.775 C 396.691 219.421,396.550 219.082,396.177 220.056 M349.225 223.062 C 349.225 224.264,349.299 224.756,349.390 224.155 C 349.481 223.554,349.481 222.570,349.390 221.968 C 349.299 221.367,349.225 221.859,349.225 223.062 M4.864 238.569 C 4.864 239.334,4.945 239.647,5.045 239.264 C 5.145 238.882,5.145 238.255,5.045 237.873 C 4.945 237.490,4.864 237.803,4.864 238.569 M5.659 244.930 C 5.659 245.696,5.741 246.009,5.841 245.626 C 5.941 245.244,5.941 244.617,5.841 244.235 C 5.741 243.852,5.659 244.165,5.659 244.930 M130.518 253.479 C 130.522 254.354,130.604 254.665,130.699 254.170 C 130.794 253.676,130.790 252.960,130.691 252.580 C 130.591 252.200,130.513 252.604,130.518 253.479 M130.894 255.865 C 130.894 256.302,131.038 257.107,131.213 257.654 C 131.465 258.441,131.531 258.483,131.531 257.853 C 131.531 257.416,131.388 256.610,131.213 256.064 C 130.961 255.277,130.894 255.235,130.894 255.865 M9.224 263.817 C 9.224 264.254,9.368 265.060,9.543 265.606 C 9.795 266.393,9.861 266.435,9.861 265.805 C 9.861 265.368,9.718 264.563,9.543 264.016 C 9.291 263.229,9.224 263.187,9.224 263.817 M13.575 279.920 C 13.575 280.249,13.729 280.875,13.917 281.312 C 14.132 281.813,14.258 281.887,14.258 281.511 C 14.258 281.183,14.104 280.557,13.917 280.119 C 13.701 279.618,13.575 279.545,13.575 279.920 M24.680 307.157 C 24.680 307.376,24.936 308.002,25.249 308.549 C 25.561 309.095,25.817 309.364,25.817 309.145 C 25.817 308.926,25.561 308.300,25.249 307.753 C 24.936 307.207,24.680 306.938,24.680 307.157 M274.553 342.161 C 273.897 342.462,273.628 342.709,273.956 342.712 C 274.284 342.714,275.000 342.460,275.547 342.147 C 276.804 341.428,276.132 341.438,274.553 342.161 M215.810 353.760 C 216.304 353.855,217.020 353.852,217.400 353.752 C 217.780 353.653,217.376 353.575,216.501 353.579 C 215.626 353.584,215.315 353.665,215.810 353.760 M194.358 354.174 C 197.488 354.241,202.498 354.241,205.491 354.174 C 208.485 354.106,205.924 354.051,199.801 354.052 C 193.678 354.052,191.229 354.107,194.358 354.174 " stroke="none" fill="#201c1c" fill-rule="evenodd"></path><path id="path3" d="M177.639 3.860 C 178.133 3.955,178.849 3.951,179.229 3.852 C 179.609 3.752,179.205 3.674,178.330 3.679 C 177.455 3.683,177.144 3.765,177.639 3.860 M220.979 3.860 C 221.473 3.955,222.189 3.951,222.569 3.852 C 222.949 3.752,222.545 3.674,221.670 3.679 C 220.795 3.683,220.484 3.765,220.979 3.860 M166.302 4.648 C 166.685 4.748,167.311 4.748,167.694 4.648 C 168.077 4.548,167.763 4.466,166.998 4.466 C 166.233 4.466,165.919 4.548,166.302 4.648 M231.511 4.648 C 231.894 4.748,232.520 4.748,232.903 4.648 C 233.285 4.548,232.972 4.466,232.207 4.466 C 231.441 4.466,231.128 4.548,231.511 4.648 M155.169 5.841 C 155.552 5.941,156.178 5.941,156.561 5.841 C 156.943 5.741,156.630 5.659,155.865 5.659 C 155.099 5.659,154.786 5.741,155.169 5.841 M242.644 5.841 C 243.027 5.941,243.653 5.941,244.036 5.841 C 244.418 5.741,244.105 5.659,243.340 5.659 C 242.575 5.659,242.261 5.741,242.644 5.841 M116.700 14.101 C 115.164 14.804,115.878 14.814,117.694 14.115 C 118.459 13.821,118.817 13.574,118.489 13.567 C 118.161 13.560,117.356 13.801,116.700 14.101 M336.610 115.706 C 336.756 116.252,337.041 116.968,337.244 117.296 C 337.500 117.711,337.531 117.589,337.347 116.899 C 337.200 116.352,336.915 115.636,336.712 115.308 C 336.456 114.894,336.425 115.015,336.610 115.706 M173.888 121.968 C 187.409 122.026,209.417 122.026,222.794 121.968 C 236.172 121.910,225.109 121.863,198.211 121.863 C 171.312 121.863,160.367 121.910,173.888 121.968 M340.811 127.237 C 340.811 127.565,340.965 128.191,341.153 128.628 C 341.368 129.129,341.495 129.203,341.495 128.827 C 341.495 128.499,341.341 127.873,341.153 127.435 C 340.938 126.934,340.811 126.861,340.811 127.237 M130.510 143.539 C 130.510 144.304,130.592 144.617,130.692 144.235 C 130.792 143.852,130.792 143.226,130.692 142.843 C 130.592 142.460,130.510 142.773,130.510 143.539 M348.816 168.588 C 348.816 169.573,348.894 169.975,348.988 169.483 C 349.083 168.991,349.083 168.186,348.988 167.694 C 348.894 167.202,348.816 167.604,348.816 168.588 M349.229 173.559 C 349.231 174.871,349.305 175.360,349.394 174.645 C 349.482 173.930,349.480 172.857,349.389 172.259 C 349.299 171.662,349.226 172.247,349.229 173.559 M396.946 188.469 C 396.946 189.891,397.019 190.472,397.107 189.761 C 397.195 189.051,397.195 187.888,397.107 187.177 C 397.019 186.466,396.946 187.048,396.946 188.469 M49.463 198.211 C 49.464 201.491,49.525 202.780,49.600 201.075 C 49.675 199.370,49.674 196.687,49.599 195.111 C 49.524 193.536,49.463 194.930,49.463 198.211 M396.953 208.350 C 396.953 209.990,397.023 210.661,397.109 209.841 C 397.195 209.021,397.195 207.679,397.109 206.859 C 397.023 206.039,396.953 206.710,396.953 208.350 M396.177 220.056 C 396.056 220.372,396.027 220.953,396.112 221.349 C 396.210 221.798,396.346 221.582,396.475 220.775 C 396.691 219.421,396.550 219.082,396.177 220.056 M349.225 223.062 C 349.225 224.264,349.299 224.756,349.390 224.155 C 349.481 223.554,349.481 222.570,349.390 221.968 C 349.299 221.367,349.225 221.859,349.225 223.062 M4.864 238.569 C 4.864 239.334,4.945 239.647,5.045 239.264 C 5.145 238.882,5.145 238.255,5.045 237.873 C 4.945 237.490,4.864 237.803,4.864 238.569 M5.659 244.930 C 5.659 245.696,5.741 246.009,5.841 245.626 C 5.941 245.244,5.941 244.617,5.841 244.235 C 5.741 243.852,5.659 244.165,5.659 244.930 M130.518 253.479 C 130.522 254.354,130.604 254.665,130.699 254.170 C 130.794 253.676,130.790 252.960,130.691 252.580 C 130.591 252.200,130.513 252.604,130.518 253.479 M130.894 255.865 C 130.894 256.302,131.038 257.107,131.213 257.654 C 131.465 258.441,131.531 258.483,131.531 257.853 C 131.531 257.416,131.388 256.610,131.213 256.064 C 130.961 255.277,130.894 255.235,130.894 255.865 M9.224 263.817 C 9.224 264.254,9.368 265.060,9.543 265.606 C 9.795 266.393,9.861 266.435,9.861 265.805 C 9.861 265.368,9.718 264.563,9.543 264.016 C 9.291 263.229,9.224 263.187,9.224 263.817 M13.575 279.920 C 13.575 280.249,13.729 280.875,13.917 281.312 C 14.132 281.813,14.258 281.887,14.258 281.511 C 14.258 281.183,14.104 280.557,13.917 280.119 C 13.701 279.618,13.575 279.545,13.575 279.920 M24.680 307.157 C 24.680 307.376,24.936 308.002,25.249 308.549 C 25.561 309.095,25.817 309.364,25.817 309.145 C 25.817 308.926,25.561 308.300,25.249 307.753 C 24.936 307.207,24.680 306.938,24.680 307.157 M274.553 342.161 C 273.897 342.462,273.628 342.709,273.956 342.712 C 274.284 342.714,275.000 342.460,275.547 342.147 C 276.804 341.428,276.132 341.438,274.553 342.161 M215.810 353.760 C 216.304 353.855,217.020 353.852,217.400 353.752 C 217.780 353.653,217.376 353.575,216.501 353.579 C 215.626 353.584,215.315 353.665,215.810 353.760 M194.358 354.174 C 197.488 354.241,202.498 354.241,205.491 354.174 C 208.485 354.106,205.924 354.051,199.801 354.052 C 193.678 354.052,191.229 354.107,194.358 354.174 " stroke="none" fill="#201c1c" fill-rule="evenodd"></path><path id="path4" d="M177.639 3.860 C 178.133 3.955,178.849 3.951,179.229 3.852 C 179.609 3.752,179.205 3.674,178.330 3.679 C 177.455 3.683,177.144 3.765,177.639 3.860 M220.979 3.860 C 221.473 3.955,222.189 3.951,222.569 3.852 C 222.949 3.752,222.545 3.674,221.670 3.679 C 220.795 3.683,220.484 3.765,220.979 3.860 M166.302 4.648 C 166.685 4.748,167.311 4.748,167.694 4.648 C 168.077 4.548,167.763 4.466,166.998 4.466 C 166.233 4.466,165.919 4.548,166.302 4.648 M231.511 4.648 C 231.894 4.748,232.520 4.748,232.903 4.648 C 233.285 4.548,232.972 4.466,232.207 4.466 C 231.441 4.466,231.128 4.548,231.511 4.648 M155.169 5.841 C 155.552 5.941,156.178 5.941,156.561 5.841 C 156.943 5.741,156.630 5.659,155.865 5.659 C 155.099 5.659,154.786 5.741,155.169 5.841 M242.644 5.841 C 243.027 5.941,243.653 5.941,244.036 5.841 C 244.418 5.741,244.105 5.659,243.340 5.659 C 242.575 5.659,242.261 5.741,242.644 5.841 M116.700 14.101 C 115.164 14.804,115.878 14.814,117.694 14.115 C 118.459 13.821,118.817 13.574,118.489 13.567 C 118.161 13.560,117.356 13.801,116.700 14.101 M336.610 115.706 C 336.756 116.252,337.041 116.968,337.244 117.296 C 337.500 117.711,337.531 117.589,337.347 116.899 C 337.200 116.352,336.915 115.636,336.712 115.308 C 336.456 114.894,336.425 115.015,336.610 115.706 M173.888 121.968 C 187.409 122.026,209.417 122.026,222.794 121.968 C 236.172 121.910,225.109 121.863,198.211 121.863 C 171.312 121.863,160.367 121.910,173.888 121.968 M340.811 127.237 C 340.811 127.565,340.965 128.191,341.153 128.628 C 341.368 129.129,341.495 129.203,341.495 128.827 C 341.495 128.499,341.341 127.873,341.153 127.435 C 340.938 126.934,340.811 126.861,340.811 127.237 M130.510 143.539 C 130.510 144.304,130.592 144.617,130.692 144.235 C 130.792 143.852,130.792 143.226,130.692 142.843 C 130.592 142.460,130.510 142.773,130.510 143.539 M348.816 168.588 C 348.816 169.573,348.894 169.975,348.988 169.483 C 349.083 168.991,349.083 168.186,348.988 167.694 C 348.894 167.202,348.816 167.604,348.816 168.588 M349.229 173.559 C 349.231 174.871,349.305 175.360,349.394 174.645 C 349.482 173.930,349.480 172.857,349.389 172.259 C 349.299 171.662,349.226 172.247,349.229 173.559 M396.946 188.469 C 396.946 189.891,397.019 190.472,397.107 189.761 C 397.195 189.051,397.195 187.888,397.107 187.177 C 397.019 186.466,396.946 187.048,396.946 188.469 M49.463 198.211 C 49.464 201.491,49.525 202.780,49.600 201.075 C 49.675 199.370,49.674 196.687,49.599 195.111 C 49.524 193.536,49.463 194.930,49.463 198.211 M396.953 208.350 C 396.953 209.990,397.023 210.661,397.109 209.841 C 397.195 209.021,397.195 207.679,397.109 206.859 C 397.023 206.039,396.953 206.710,396.953 208.350 M396.177 220.056 C 396.056 220.372,396.027 220.953,396.112 221.349 C 396.210 221.798,396.346 221.582,396.475 220.775 C 396.691 219.421,396.550 219.082,396.177 220.056 M349.225 223.062 C 349.225 224.264,349.299 224.756,349.390 224.155 C 349.481 223.554,349.481 222.570,349.390 221.968 C 349.299 221.367,349.225 221.859,349.225 223.062 M4.864 238.569 C 4.864 239.334,4.945 239.647,5.045 239.264 C 5.145 238.882,5.145 238.255,5.045 237.873 C 4.945 237.490,4.864 237.803,4.864 238.569 M5.659 244.930 C 5.659 245.696,5.741 246.009,5.841 245.626 C 5.941 245.244,5.941 244.617,5.841 244.235 C 5.741 243.852,5.659 244.165,5.659 244.930 M130.518 253.479 C 130.522 254.354,130.604 254.665,130.699 254.170 C 130.794 253.676,130.790 252.960,130.691 252.580 C 130.591 252.200,130.513 252.604,130.518 253.479 M130.894 255.865 C 130.894 256.302,131.038 257.107,131.213 257.654 C 131.465 258.441,131.531 258.483,131.531 257.853 C 131.531 257.416,131.388 256.610,131.213 256.064 C 130.961 255.277,130.894 255.235,130.894 255.865 M9.224 263.817 C 9.224 264.254,9.368 265.060,9.543 265.606 C 9.795 266.393,9.861 266.435,9.861 265.805 C 9.861 265.368,9.718 264.563,9.543 264.016 C 9.291 263.229,9.224 263.187,9.224 263.817 M13.575 279.920 C 13.575 280.249,13.729 280.875,13.917 281.312 C 14.132 281.813,14.258 281.887,14.258 281.511 C 14.258 281.183,14.104 280.557,13.917 280.119 C 13.701 279.618,13.575 279.545,13.575 279.920 M24.680 307.157 C 24.680 307.376,24.936 308.002,25.249 308.549 C 25.561 309.095,25.817 309.364,25.817 309.145 C 25.817 308.926,25.561 308.300,25.249 307.753 C 24.936 307.207,24.680 306.938,24.680 307.157 M274.553 342.161 C 273.897 342.462,273.628 342.709,273.956 342.712 C 274.284 342.714,275.000 342.460,275.547 342.147 C 276.804 341.428,276.132 341.438,274.553 342.161 M215.810 353.760 C 216.304 353.855,217.020 353.852,217.400 353.752 C 217.780 353.653,217.376 353.575,216.501 353.579 C 215.626 353.584,215.315 353.665,215.810 353.760 M194.358 354.174 C 197.488 354.241,202.498 354.241,205.491 354.174 C 208.485 354.106,205.924 354.051,199.801 354.052 C 193.678 354.052,191.229 354.107,194.358 354.174 " stroke="none" fill="#201c1c" fill-rule="evenodd"></path></g></svg>